<svg version="1.1" id="Layer_1" xmlns="http://www.w3.org/2000/svg" xmlns:xlink="http://www.w3.org/1999/xlink" x="0px" y="0px"
	 width="100%" viewBox="0 0 500 500" enable-background="new 0 0 500 500" xml:space="preserve">
<path fill="#0A192F" opacity="1.000000" stroke="none" 
	d="
M245.000000,501.000000 
	C163.333359,501.000000 82.166702,501.000000 1.000044,501.000000 
	C1.000029,334.333405 1.000029,167.666779 1.000015,1.000133 
	C167.666565,1.000089 334.333130,1.000089 500.999756,1.000044 
	C500.999847,167.666519 500.999847,334.333038 500.999939,500.999786 
	C415.833344,501.000000 330.666656,501.000000 245.000000,501.000000 
M397.633209,386.500183 
	C397.633148,353.675446 397.612000,320.850708 397.651306,288.026031 
	C397.658905,281.698212 397.460541,275.322815 398.138275,269.053802 
	C399.270325,258.583160 400.305603,247.794571 412.385712,243.192215 
	C413.059113,242.935669 413.378967,241.751160 413.863403,240.998596 
	C412.815033,240.492371 411.773651,239.564758 410.717255,239.547302 
	C403.054626,239.420776 395.384735,239.625351 387.726379,239.404846 
	C384.624756,239.315536 382.982056,240.465012 381.474976,243.088669 
	C375.758179,253.040817 369.792480,262.849945 363.920013,272.712677 
	C347.838379,299.721558 331.756836,326.730530 315.405090,354.193146 
	C298.303741,326.019531 281.422211,298.208069 264.540680,270.396637 
	C263.650909,282.516205 263.502411,294.454437 263.760010,306.383911 
	C263.820984,309.206604 264.690247,312.330597 266.132080,314.754120 
	C277.359314,333.625610 289.057098,352.221008 300.058044,371.220978 
	C303.343994,376.896210 307.552795,376.704590 310.829254,371.055847 
	C330.859863,336.522186 351.324951,302.240540 371.654175,267.880157 
	C372.580322,266.314819 373.592133,264.800110 374.564056,263.261841 
	C374.961548,263.437622 375.359070,263.613434 375.756592,263.789215 
	C375.756592,265.259735 375.756622,266.730286 375.756561,268.200806 
	C375.754761,309.523438 375.779846,350.846100 375.716125,392.168640 
	C375.708435,397.158539 375.444580,402.172363 374.898132,407.130890 
	C374.231781,413.177917 372.964264,419.018341 366.621521,422.103333 
	C365.672119,422.565125 365.306580,424.227356 364.451324,425.716705 
	C379.529572,425.716705 393.774017,425.716705 409.129639,425.716705 
	C407.799683,423.986877 407.236847,422.541443 406.214508,422.048065 
	C401.680511,419.859741 399.399475,416.078522 398.984436,411.398956 
	C398.279907,403.455231 398.057953,395.468719 397.633209,386.500183 
M211.069733,184.427582 
	C199.718369,157.165909 188.367020,129.904236 176.847137,102.237839 
	C169.904953,105.370796 163.469086,108.275253 156.385590,111.471977 
	C163.349014,120.221992 160.307724,128.487701 156.714874,137.088348 
	C147.942642,158.087509 139.577560,179.256790 131.048889,200.357727 
	C122.769135,220.842834 114.652435,241.396011 106.141403,261.784576 
	C101.909081,271.923309 97.359840,282.045197 86.339333,287.059784 
	C85.458000,287.460754 85.283119,289.414337 84.758507,290.698914 
	C95.358841,290.698914 105.094696,290.698914 115.979576,290.698914 
	C114.663307,288.949493 114.116547,287.435242 113.117302,287.026062 
	C107.754166,284.830139 106.711624,280.420471 107.396492,275.543091 
	C107.992752,271.296661 109.049408,267.019165 110.586525,263.018158 
	C115.531036,250.147934 120.926476,237.450546 125.837074,224.567978 
	C127.079506,221.308563 128.753479,220.453156 132.049942,220.473953 
	C154.034790,220.612610 176.021622,220.631104 198.006012,220.459579 
	C201.555206,220.431900 203.384109,221.484482 204.607086,224.822021 
	C206.797867,230.800812 209.423187,236.620361 211.866882,242.506470 
	C212.786148,224.962799 212.827042,207.700912 212.723923,190.439880 
	C212.713409,188.683838 211.837021,186.932968 211.069733,184.427582 
z"/>
<path fill="#61FBD7" opacity="1.000000" stroke="none" 
	d="
M397.633179,387.000183 
	C398.057953,395.468719 398.279907,403.455231 398.984436,411.398956 
	C399.399475,416.078522 401.680511,419.859741 406.214508,422.048065 
	C407.236847,422.541443 407.799683,423.986877 409.129639,425.716705 
	C393.774017,425.716705 379.529572,425.716705 364.451324,425.716705 
	C365.306580,424.227356 365.672119,422.565125 366.621521,422.103333 
	C372.964264,419.018341 374.231781,413.177917 374.898132,407.130890 
	C375.444580,402.172363 375.708435,397.158539 375.716125,392.168640 
	C375.779846,350.846100 375.754761,309.523438 375.756561,268.200806 
	C375.756622,266.730286 375.756592,265.259735 375.756592,263.789215 
	C375.359070,263.613434 374.961548,263.437622 374.564056,263.261841 
	C373.592133,264.800110 372.580322,266.314819 371.654175,267.880157 
	C351.324951,302.240540 330.859863,336.522186 310.829254,371.055847 
	C307.552795,376.704590 303.343994,376.896210 300.058044,371.220978 
	C289.057098,352.221008 277.359314,333.625610 266.132080,314.754120 
	C264.690247,312.330597 263.820984,309.206604 263.760010,306.383911 
	C263.502411,294.454437 263.650909,282.516205 264.540680,270.396637 
	C281.422211,298.208069 298.303741,326.019531 315.405090,354.193146 
	C331.756836,326.730530 347.838379,299.721558 363.920013,272.712677 
	C369.792480,262.849945 375.758179,253.040817 381.474976,243.088669 
	C382.982056,240.465012 384.624756,239.315536 387.726379,239.404846 
	C395.384735,239.625351 403.054626,239.420776 410.717255,239.547302 
	C411.773651,239.564758 412.815033,240.492371 413.863403,240.998596 
	C413.378967,241.751160 413.059113,242.935669 412.385712,243.192215 
	C400.305603,247.794571 399.270325,258.583160 398.138275,269.053802 
	C397.460541,275.322815 397.658905,281.698212 397.651306,288.026031 
	C397.612000,320.850708 397.633148,353.675446 397.633179,387.000183 
z"/>
<path fill="#5FF5D3" opacity="1.000000" stroke="none" 
	d="
M211.216095,184.803635 
	C211.837021,186.932968 212.713409,188.683838 212.723923,190.439880 
	C212.827042,207.700912 212.786148,224.962799 211.866882,242.506470 
	C209.423187,236.620361 206.797867,230.800812 204.607086,224.822021 
	C203.384109,221.484482 201.555206,220.431900 198.006012,220.459579 
	C176.021622,220.631104 154.034790,220.612610 132.049942,220.473953 
	C128.753479,220.453156 127.079506,221.308563 125.837074,224.567978 
	C120.926476,237.450546 115.531036,250.147934 110.586525,263.018158 
	C109.049408,267.019165 107.992752,271.296661 107.396492,275.543091 
	C106.711624,280.420471 107.754166,284.830139 113.117302,287.026062 
	C114.116547,287.435242 114.663307,288.949493 115.979576,290.698914 
	C105.094696,290.698914 95.358841,290.698914 84.758507,290.698914 
	C85.283119,289.414337 85.458000,287.460754 86.339333,287.059784 
	C97.359840,282.045197 101.909081,271.923309 106.141403,261.784576 
	C114.652435,241.396011 122.769135,220.842834 131.048889,200.357727 
	C139.577560,179.256790 147.942642,158.087509 156.714874,137.088348 
	C160.307724,128.487701 163.349014,120.221992 156.385590,111.471977 
	C163.469086,108.275253 169.904953,105.370796 176.847137,102.237839 
	C188.367020,129.904236 199.718369,157.165909 211.216095,184.803635 
M184.299225,176.283020 
	C177.863983,160.803604 171.428741,145.324203 164.572205,128.831406 
	C152.547058,158.596970 141.014252,187.143845 129.328232,216.069977 
	C153.492111,216.069977 176.818054,216.069977 200.830948,216.069977 
	C195.287323,202.649124 189.980301,189.801056 184.299225,176.283020 
z"/>
<path fill="#0B1B30" opacity="1.000000" stroke="none" 
	d="
M184.486252,176.618011 
	C189.980301,189.801056 195.287323,202.649124 200.830948,216.069977 
	C176.818054,216.069977 153.492111,216.069977 129.328232,216.069977 
	C141.014252,187.143845 152.547058,158.596970 164.572205,128.831406 
	C171.428741,145.324203 177.863983,160.803604 184.486252,176.618011 
z"/>
</svg>